<mxfile host="app.diagrams.net" agent="Mozilla/5.0 (Windows NT 10.0; Win64; x64) AppleWebKit/537.36 (KHTML, like Gecko) Chrome/128.0.0.0 Safari/537.36 Edg/128.0.0.0" version="24.7.14">
  <diagram name="Page-1" id="c4acf3e9-155e-7222-9cf6-157b1a14988f">
    <mxGraphModel dx="2316" dy="2356" grid="1" gridSize="10" guides="1" tooltips="1" connect="1" arrows="1" fold="1" page="1" pageScale="1" pageWidth="850" pageHeight="1100" background="none" math="0" shadow="0">
      <root>
        <mxCell id="0" />
        <mxCell id="1" parent="0" />
        <mxCell id="K8S6SPt0zPuVIynHNqIf-5" style="edgeStyle=orthogonalEdgeStyle;rounded=0;orthogonalLoop=1;jettySize=auto;html=1;entryX=0;entryY=0.5;entryDx=0;entryDy=0;" edge="1" parent="1" source="K8S6SPt0zPuVIynHNqIf-1" target="K8S6SPt0zPuVIynHNqIf-3">
          <mxGeometry relative="1" as="geometry" />
        </mxCell>
        <mxCell id="K8S6SPt0zPuVIynHNqIf-6" style="edgeStyle=orthogonalEdgeStyle;rounded=0;orthogonalLoop=1;jettySize=auto;html=1;exitX=1;exitY=0.5;exitDx=0;exitDy=0;entryX=0;entryY=0.5;entryDx=0;entryDy=0;" edge="1" parent="1" source="K8S6SPt0zPuVIynHNqIf-1" target="K8S6SPt0zPuVIynHNqIf-4">
          <mxGeometry relative="1" as="geometry" />
        </mxCell>
        <mxCell id="K8S6SPt0zPuVIynHNqIf-8" value="" style="edgeStyle=orthogonalEdgeStyle;rounded=0;orthogonalLoop=1;jettySize=auto;html=1;" edge="1" parent="1" source="K8S6SPt0zPuVIynHNqIf-1" target="K8S6SPt0zPuVIynHNqIf-7">
          <mxGeometry relative="1" as="geometry" />
        </mxCell>
        <mxCell id="K8S6SPt0zPuVIynHNqIf-1" value="User" style="html=1;whiteSpace=wrap;" vertex="1" parent="1">
          <mxGeometry x="258" y="219" width="110" height="50" as="geometry" />
        </mxCell>
        <mxCell id="K8S6SPt0zPuVIynHNqIf-196" style="edgeStyle=orthogonalEdgeStyle;rounded=0;orthogonalLoop=1;jettySize=auto;html=1;exitX=1;exitY=0.5;exitDx=0;exitDy=0;entryX=0;entryY=0.5;entryDx=0;entryDy=0;" edge="1" parent="1" source="K8S6SPt0zPuVIynHNqIf-3" target="K8S6SPt0zPuVIynHNqIf-48">
          <mxGeometry relative="1" as="geometry" />
        </mxCell>
        <mxCell id="K8S6SPt0zPuVIynHNqIf-3" value="Farmer" style="html=1;whiteSpace=wrap;" vertex="1" parent="1">
          <mxGeometry x="578" y="-41" width="90" height="50" as="geometry" />
        </mxCell>
        <mxCell id="K8S6SPt0zPuVIynHNqIf-201" style="edgeStyle=orthogonalEdgeStyle;rounded=0;orthogonalLoop=1;jettySize=auto;html=1;exitX=1;exitY=0.5;exitDx=0;exitDy=0;entryX=0;entryY=0.5;entryDx=0;entryDy=0;" edge="1" parent="1" source="K8S6SPt0zPuVIynHNqIf-4" target="K8S6SPt0zPuVIynHNqIf-200">
          <mxGeometry relative="1" as="geometry" />
        </mxCell>
        <mxCell id="K8S6SPt0zPuVIynHNqIf-4" value="Buyer" style="html=1;whiteSpace=wrap;" vertex="1" parent="1">
          <mxGeometry x="578" y="555" width="110" height="50" as="geometry" />
        </mxCell>
        <mxCell id="K8S6SPt0zPuVIynHNqIf-7" value="Admin" style="html=1;whiteSpace=wrap;" vertex="1" parent="1">
          <mxGeometry x="258" y="369" width="110" height="50" as="geometry" />
        </mxCell>
        <mxCell id="K8S6SPt0zPuVIynHNqIf-229" style="edgeStyle=orthogonalEdgeStyle;rounded=0;orthogonalLoop=1;jettySize=auto;html=1;curved=0;exitX=0;exitY=0;exitDx=0;exitDy=5;exitPerimeter=0;" edge="1" parent="1" source="K8S6SPt0zPuVIynHNqIf-27" target="K8S6SPt0zPuVIynHNqIf-72">
          <mxGeometry relative="1" as="geometry" />
        </mxCell>
        <mxCell id="K8S6SPt0zPuVIynHNqIf-27" value="" style="html=1;points=[[0,0,0,0,5],[0,1,0,0,-5],[1,0,0,0,5],[1,1,0,0,-5]];perimeter=orthogonalPerimeter;outlineConnect=0;targetShapes=umlLifeline;portConstraint=eastwest;newEdgeStyle={&quot;curved&quot;:0,&quot;rounded&quot;:0};" vertex="1" parent="1">
          <mxGeometry x="938" y="459" width="20" height="219" as="geometry" />
        </mxCell>
        <mxCell id="K8S6SPt0zPuVIynHNqIf-50" style="edgeStyle=orthogonalEdgeStyle;rounded=0;orthogonalLoop=1;jettySize=auto;html=1;" edge="1" parent="1" source="K8S6SPt0zPuVIynHNqIf-45">
          <mxGeometry relative="1" as="geometry">
            <mxPoint x="948" y="-7.999999999999545" as="targetPoint" />
          </mxGeometry>
        </mxCell>
        <mxCell id="K8S6SPt0zPuVIynHNqIf-45" value="Auth" style="swimlane;fontStyle=1;align=center;verticalAlign=top;childLayout=stackLayout;horizontal=1;startSize=26;horizontalStack=0;resizeParent=1;resizeParentMax=0;resizeLast=0;collapsible=1;marginBottom=0;whiteSpace=wrap;html=1;" vertex="1" parent="1">
          <mxGeometry x="728" y="-53" width="160" height="100" as="geometry" />
        </mxCell>
        <mxCell id="K8S6SPt0zPuVIynHNqIf-46" value="+ username: String&lt;div&gt;- password: String&lt;/div&gt;" style="text;strokeColor=none;fillColor=none;align=left;verticalAlign=top;spacingLeft=4;spacingRight=4;overflow=hidden;rotatable=0;points=[[0,0.5],[1,0.5]];portConstraint=eastwest;whiteSpace=wrap;html=1;" vertex="1" parent="K8S6SPt0zPuVIynHNqIf-45">
          <mxGeometry y="26" width="160" height="34" as="geometry" />
        </mxCell>
        <mxCell id="K8S6SPt0zPuVIynHNqIf-47" value="" style="line;strokeWidth=1;fillColor=none;align=left;verticalAlign=middle;spacingTop=-1;spacingLeft=3;spacingRight=3;rotatable=0;labelPosition=right;points=[];portConstraint=eastwest;strokeColor=inherit;" vertex="1" parent="K8S6SPt0zPuVIynHNqIf-45">
          <mxGeometry y="60" width="160" height="8" as="geometry" />
        </mxCell>
        <mxCell id="K8S6SPt0zPuVIynHNqIf-48" value="+ Post: register,login" style="text;strokeColor=none;fillColor=none;align=left;verticalAlign=top;spacingLeft=4;spacingRight=4;overflow=hidden;rotatable=0;points=[[0,0.5],[1,0.5]];portConstraint=eastwest;whiteSpace=wrap;html=1;" vertex="1" parent="K8S6SPt0zPuVIynHNqIf-45">
          <mxGeometry y="68" width="160" height="32" as="geometry" />
        </mxCell>
        <mxCell id="K8S6SPt0zPuVIynHNqIf-55" style="edgeStyle=orthogonalEdgeStyle;rounded=0;orthogonalLoop=1;jettySize=auto;html=1;" edge="1" parent="1" target="K8S6SPt0zPuVIynHNqIf-27">
          <mxGeometry relative="1" as="geometry">
            <mxPoint x="888" y="588" as="sourcePoint" />
          </mxGeometry>
        </mxCell>
        <mxCell id="K8S6SPt0zPuVIynHNqIf-56" value="product" style="swimlane;fontStyle=1;align=center;verticalAlign=top;childLayout=stackLayout;horizontal=1;startSize=26;horizontalStack=0;resizeParent=1;resizeParentMax=0;resizeLast=0;collapsible=1;marginBottom=0;whiteSpace=wrap;html=1;fillColor=#f5f5f5;fontColor=#333333;strokeColor=#666666;" vertex="1" parent="1">
          <mxGeometry x="1038" y="69" width="160" height="114" as="geometry" />
        </mxCell>
        <mxCell id="K8S6SPt0zPuVIynHNqIf-57" value="+ id:String&lt;div&gt;+ productName: String&lt;/div&gt;&lt;div&gt;+ type: String&lt;/div&gt;" style="text;strokeColor=none;fillColor=none;align=left;verticalAlign=top;spacingLeft=4;spacingRight=4;overflow=hidden;rotatable=0;points=[[0,0.5],[1,0.5]];portConstraint=eastwest;whiteSpace=wrap;html=1;" vertex="1" parent="K8S6SPt0zPuVIynHNqIf-56">
          <mxGeometry y="26" width="160" height="54" as="geometry" />
        </mxCell>
        <mxCell id="K8S6SPt0zPuVIynHNqIf-58" value="" style="line;strokeWidth=1;fillColor=none;align=left;verticalAlign=middle;spacingTop=-1;spacingLeft=3;spacingRight=3;rotatable=0;labelPosition=right;points=[];portConstraint=eastwest;strokeColor=inherit;" vertex="1" parent="K8S6SPt0zPuVIynHNqIf-56">
          <mxGeometry y="80" width="160" height="8" as="geometry" />
        </mxCell>
        <mxCell id="K8S6SPt0zPuVIynHNqIf-59" value="+ Post : order(object)" style="text;strokeColor=none;fillColor=none;align=left;verticalAlign=top;spacingLeft=4;spacingRight=4;overflow=hidden;rotatable=0;points=[[0,0.5],[1,0.5]];portConstraint=eastwest;whiteSpace=wrap;html=1;" vertex="1" parent="K8S6SPt0zPuVIynHNqIf-56">
          <mxGeometry y="88" width="160" height="26" as="geometry" />
        </mxCell>
        <mxCell id="K8S6SPt0zPuVIynHNqIf-61" value="Order Service" style="swimlane;fontStyle=1;align=center;verticalAlign=top;childLayout=stackLayout;horizontal=1;startSize=26;horizontalStack=0;resizeParent=1;resizeParentMax=0;resizeLast=0;collapsible=1;marginBottom=0;whiteSpace=wrap;html=1;" vertex="1" parent="1">
          <mxGeometry x="1038" y="-41" width="160" height="100" as="geometry" />
        </mxCell>
        <mxCell id="K8S6SPt0zPuVIynHNqIf-62" value="+ orders: [String]&amp;nbsp;" style="text;strokeColor=none;fillColor=none;align=left;verticalAlign=top;spacingLeft=4;spacingRight=4;overflow=hidden;rotatable=0;points=[[0,0.5],[1,0.5]];portConstraint=eastwest;whiteSpace=wrap;html=1;" vertex="1" parent="K8S6SPt0zPuVIynHNqIf-61">
          <mxGeometry y="26" width="160" height="22" as="geometry" />
        </mxCell>
        <mxCell id="K8S6SPt0zPuVIynHNqIf-63" value="" style="line;strokeWidth=1;fillColor=none;align=left;verticalAlign=middle;spacingTop=-1;spacingLeft=3;spacingRight=3;rotatable=0;labelPosition=right;points=[];portConstraint=eastwest;strokeColor=inherit;" vertex="1" parent="K8S6SPt0zPuVIynHNqIf-61">
          <mxGeometry y="48" width="160" height="8" as="geometry" />
        </mxCell>
        <mxCell id="K8S6SPt0zPuVIynHNqIf-64" value="+ Get: Orders(product.id)&lt;div&gt;+ Post: updateStatus(id)&lt;/div&gt;" style="text;strokeColor=none;fillColor=none;align=left;verticalAlign=top;spacingLeft=4;spacingRight=4;overflow=hidden;rotatable=0;points=[[0,0.5],[1,0.5]];portConstraint=eastwest;whiteSpace=wrap;html=1;" vertex="1" parent="K8S6SPt0zPuVIynHNqIf-61">
          <mxGeometry y="56" width="160" height="44" as="geometry" />
        </mxCell>
        <mxCell id="K8S6SPt0zPuVIynHNqIf-69" value="Chat Service" style="swimlane;fontStyle=1;align=center;verticalAlign=top;childLayout=stackLayout;horizontal=1;startSize=26;horizontalStack=0;resizeParent=1;resizeParentMax=0;resizeLast=0;collapsible=1;marginBottom=0;whiteSpace=wrap;html=1;" vertex="1" parent="1">
          <mxGeometry x="553" y="169" width="160" height="180" as="geometry" />
        </mxCell>
        <mxCell id="K8S6SPt0zPuVIynHNqIf-70" value="+ from: String&lt;div&gt;+ to: String&lt;/div&gt;&lt;div&gt;+ socketId: String&lt;/div&gt;&lt;div&gt;+ messages: [String]&lt;/div&gt;&lt;div&gt;+ participants: [String]&lt;/div&gt;" style="text;strokeColor=none;fillColor=none;align=left;verticalAlign=top;spacingLeft=4;spacingRight=4;overflow=hidden;rotatable=0;points=[[0,0.5],[1,0.5]];portConstraint=eastwest;whiteSpace=wrap;html=1;" vertex="1" parent="K8S6SPt0zPuVIynHNqIf-69">
          <mxGeometry y="26" width="160" height="84" as="geometry" />
        </mxCell>
        <mxCell id="K8S6SPt0zPuVIynHNqIf-71" value="" style="line;strokeWidth=1;fillColor=none;align=left;verticalAlign=middle;spacingTop=-1;spacingLeft=3;spacingRight=3;rotatable=0;labelPosition=right;points=[];portConstraint=eastwest;strokeColor=inherit;" vertex="1" parent="K8S6SPt0zPuVIynHNqIf-69">
          <mxGeometry y="110" width="160" height="8" as="geometry" />
        </mxCell>
        <mxCell id="K8S6SPt0zPuVIynHNqIf-72" value="+addMessage(...messages)&lt;div&gt;+showMessage(messages)&lt;/div&gt;&lt;div&gt;+ participants()&lt;/div&gt;" style="text;strokeColor=none;fillColor=none;align=left;verticalAlign=top;spacingLeft=4;spacingRight=4;overflow=hidden;rotatable=0;points=[[0,0.5],[1,0.5]];portConstraint=eastwest;whiteSpace=wrap;html=1;" vertex="1" parent="K8S6SPt0zPuVIynHNqIf-69">
          <mxGeometry y="118" width="160" height="62" as="geometry" />
        </mxCell>
        <mxCell id="K8S6SPt0zPuVIynHNqIf-77" value="Market Service" style="swimlane;fontStyle=1;align=center;verticalAlign=top;childLayout=stackLayout;horizontal=1;startSize=26;horizontalStack=0;resizeParent=1;resizeParentMax=0;resizeLast=0;collapsible=1;marginBottom=0;whiteSpace=wrap;html=1;" vertex="1" parent="1">
          <mxGeometry x="1048" y="482" width="160" height="80" as="geometry" />
        </mxCell>
        <mxCell id="K8S6SPt0zPuVIynHNqIf-79" value="" style="line;strokeWidth=1;fillColor=none;align=left;verticalAlign=middle;spacingTop=-1;spacingLeft=3;spacingRight=3;rotatable=0;labelPosition=right;points=[];portConstraint=eastwest;strokeColor=inherit;" vertex="1" parent="K8S6SPt0zPuVIynHNqIf-77">
          <mxGeometry y="26" width="160" height="8" as="geometry" />
        </mxCell>
        <mxCell id="K8S6SPt0zPuVIynHNqIf-80" value="+ Get: Products()&lt;div&gt;+ Post : Review()&lt;/div&gt;" style="text;strokeColor=none;fillColor=none;align=left;verticalAlign=top;spacingLeft=4;spacingRight=4;overflow=hidden;rotatable=0;points=[[0,0.5],[1,0.5]];portConstraint=eastwest;whiteSpace=wrap;html=1;" vertex="1" parent="K8S6SPt0zPuVIynHNqIf-77">
          <mxGeometry y="34" width="160" height="46" as="geometry" />
        </mxCell>
        <mxCell id="K8S6SPt0zPuVIynHNqIf-81" value="Payment Service" style="swimlane;fontStyle=1;align=center;verticalAlign=top;childLayout=stackLayout;horizontal=1;startSize=26;horizontalStack=0;resizeParent=1;resizeParentMax=0;resizeLast=0;collapsible=1;marginBottom=0;whiteSpace=wrap;html=1;" vertex="1" parent="1">
          <mxGeometry x="1048" y="592" width="160" height="124" as="geometry" />
        </mxCell>
        <mxCell id="K8S6SPt0zPuVIynHNqIf-82" value="+ from: String&lt;div&gt;+ to: String&lt;/div&gt;&lt;div&gt;+ amount: Number&lt;/div&gt;&lt;div&gt;+transactiinID : String&lt;/div&gt;" style="text;strokeColor=none;fillColor=none;align=left;verticalAlign=top;spacingLeft=4;spacingRight=4;overflow=hidden;rotatable=0;points=[[0,0.5],[1,0.5]];portConstraint=eastwest;whiteSpace=wrap;html=1;" vertex="1" parent="K8S6SPt0zPuVIynHNqIf-81">
          <mxGeometry y="26" width="160" height="64" as="geometry" />
        </mxCell>
        <mxCell id="K8S6SPt0zPuVIynHNqIf-83" value="" style="line;strokeWidth=1;fillColor=none;align=left;verticalAlign=middle;spacingTop=-1;spacingLeft=3;spacingRight=3;rotatable=0;labelPosition=right;points=[];portConstraint=eastwest;strokeColor=inherit;" vertex="1" parent="K8S6SPt0zPuVIynHNqIf-81">
          <mxGeometry y="90" width="160" height="8" as="geometry" />
        </mxCell>
        <mxCell id="K8S6SPt0zPuVIynHNqIf-84" value="+ Post: payment(to,amount)" style="text;strokeColor=none;fillColor=none;align=left;verticalAlign=top;spacingLeft=4;spacingRight=4;overflow=hidden;rotatable=0;points=[[0,0.5],[1,0.5]];portConstraint=eastwest;whiteSpace=wrap;html=1;" vertex="1" parent="K8S6SPt0zPuVIynHNqIf-81">
          <mxGeometry y="98" width="160" height="26" as="geometry" />
        </mxCell>
        <mxCell id="K8S6SPt0zPuVIynHNqIf-85" value="Subscription Service" style="swimlane;fontStyle=1;align=center;verticalAlign=top;childLayout=stackLayout;horizontal=1;startSize=26;horizontalStack=0;resizeParent=1;resizeParentMax=0;resizeLast=0;collapsible=1;marginBottom=0;whiteSpace=wrap;html=1;" vertex="1" parent="1">
          <mxGeometry x="1048" y="746" width="160" height="144" as="geometry" />
        </mxCell>
        <mxCell id="K8S6SPt0zPuVIynHNqIf-86" value="+ from: String&lt;div&gt;+ to: String&lt;/div&gt;&lt;div&gt;+ amount: Number&lt;/div&gt;&lt;div&gt;+transactiinID : String&lt;/div&gt;&lt;div&gt;+ duration: Number&lt;/div&gt;" style="text;strokeColor=none;fillColor=none;align=left;verticalAlign=top;spacingLeft=4;spacingRight=4;overflow=hidden;rotatable=0;points=[[0,0.5],[1,0.5]];portConstraint=eastwest;whiteSpace=wrap;html=1;" vertex="1" parent="K8S6SPt0zPuVIynHNqIf-85">
          <mxGeometry y="26" width="160" height="84" as="geometry" />
        </mxCell>
        <mxCell id="K8S6SPt0zPuVIynHNqIf-87" value="" style="line;strokeWidth=1;fillColor=none;align=left;verticalAlign=middle;spacingTop=-1;spacingLeft=3;spacingRight=3;rotatable=0;labelPosition=right;points=[];portConstraint=eastwest;strokeColor=inherit;" vertex="1" parent="K8S6SPt0zPuVIynHNqIf-85">
          <mxGeometry y="110" width="160" height="8" as="geometry" />
        </mxCell>
        <mxCell id="K8S6SPt0zPuVIynHNqIf-88" value="+ subscribe(to,amount)" style="text;strokeColor=none;fillColor=none;align=left;verticalAlign=top;spacingLeft=4;spacingRight=4;overflow=hidden;rotatable=0;points=[[0,0.5],[1,0.5]];portConstraint=eastwest;whiteSpace=wrap;html=1;" vertex="1" parent="K8S6SPt0zPuVIynHNqIf-85">
          <mxGeometry y="118" width="160" height="26" as="geometry" />
        </mxCell>
        <mxCell id="K8S6SPt0zPuVIynHNqIf-106" value="Profile Service" style="swimlane;fontStyle=1;align=center;verticalAlign=top;childLayout=stackLayout;horizontal=1;startSize=26;horizontalStack=0;resizeParent=1;resizeParentMax=0;resizeLast=0;collapsible=1;marginBottom=0;whiteSpace=wrap;html=1;" vertex="1" parent="1">
          <mxGeometry x="1038" y="-351" width="160" height="140" as="geometry" />
        </mxCell>
        <mxCell id="K8S6SPt0zPuVIynHNqIf-107" value="+ username: String&lt;div&gt;+ fullName: String&lt;/div&gt;&lt;div&gt;+ address: string&lt;/div&gt;&lt;div&gt;+ rating: Number&lt;/div&gt;&lt;div&gt;&lt;br&gt;&lt;/div&gt;&lt;div&gt;&lt;br&gt;&lt;/div&gt;" style="text;strokeColor=none;fillColor=none;align=left;verticalAlign=top;spacingLeft=4;spacingRight=4;overflow=hidden;rotatable=0;points=[[0,0.5],[1,0.5]];portConstraint=eastwest;whiteSpace=wrap;html=1;" vertex="1" parent="K8S6SPt0zPuVIynHNqIf-106">
          <mxGeometry y="26" width="160" height="64" as="geometry" />
        </mxCell>
        <mxCell id="K8S6SPt0zPuVIynHNqIf-108" value="" style="line;strokeWidth=1;fillColor=none;align=left;verticalAlign=middle;spacingTop=-1;spacingLeft=3;spacingRight=3;rotatable=0;labelPosition=right;points=[];portConstraint=eastwest;strokeColor=inherit;" vertex="1" parent="K8S6SPt0zPuVIynHNqIf-106">
          <mxGeometry y="90" width="160" height="8" as="geometry" />
        </mxCell>
        <mxCell id="K8S6SPt0zPuVIynHNqIf-109" value="+ Post: editDetails()&lt;div&gt;+ Get: farmerDetails()&lt;/div&gt;" style="text;strokeColor=none;fillColor=none;align=left;verticalAlign=top;spacingLeft=4;spacingRight=4;overflow=hidden;rotatable=0;points=[[0,0.5],[1,0.5]];portConstraint=eastwest;whiteSpace=wrap;html=1;" vertex="1" parent="K8S6SPt0zPuVIynHNqIf-106">
          <mxGeometry y="98" width="160" height="42" as="geometry" />
        </mxCell>
        <mxCell id="K8S6SPt0zPuVIynHNqIf-113" value="" style="edgeStyle=elbowEdgeStyle;elbow=horizontal;endArrow=classic;html=1;curved=0;rounded=0;endSize=8;startSize=8;entryX=0;entryY=0.5;entryDx=0;entryDy=0;" edge="1" parent="1" source="K8S6SPt0zPuVIynHNqIf-27">
          <mxGeometry width="50" height="50" relative="1" as="geometry">
            <mxPoint x="958" y="592" as="sourcePoint" />
            <mxPoint x="1048" y="432" as="targetPoint" />
            <Array as="points">
              <mxPoint x="1008" y="489" />
            </Array>
          </mxGeometry>
        </mxCell>
        <mxCell id="K8S6SPt0zPuVIynHNqIf-114" value="" style="edgeStyle=elbowEdgeStyle;elbow=horizontal;endArrow=classic;html=1;curved=0;rounded=0;endSize=8;startSize=8;entryX=0;entryY=0.5;entryDx=0;entryDy=0;" edge="1" parent="1">
          <mxGeometry width="50" height="50" relative="1" as="geometry">
            <mxPoint x="958" y="589" as="sourcePoint" />
            <mxPoint x="1048" y="542" as="targetPoint" />
            <Array as="points">
              <mxPoint x="1008" y="539" />
            </Array>
          </mxGeometry>
        </mxCell>
        <mxCell id="K8S6SPt0zPuVIynHNqIf-115" value="" style="edgeStyle=elbowEdgeStyle;elbow=horizontal;endArrow=classic;html=1;curved=0;rounded=0;endSize=8;startSize=8;entryX=0;entryY=0.5;entryDx=0;entryDy=0;" edge="1" parent="1" source="K8S6SPt0zPuVIynHNqIf-27" target="K8S6SPt0zPuVIynHNqIf-84">
          <mxGeometry width="50" height="50" relative="1" as="geometry">
            <mxPoint x="958" y="592" as="sourcePoint" />
            <mxPoint x="1008" y="542" as="targetPoint" />
            <Array as="points">
              <mxPoint x="1008" y="589" />
            </Array>
          </mxGeometry>
        </mxCell>
        <mxCell id="K8S6SPt0zPuVIynHNqIf-116" value="" style="edgeStyle=elbowEdgeStyle;elbow=horizontal;endArrow=classic;html=1;curved=0;rounded=0;endSize=8;startSize=8;entryX=0;entryY=0.5;entryDx=0;entryDy=0;" edge="1" parent="1" target="K8S6SPt0zPuVIynHNqIf-88">
          <mxGeometry width="50" height="50" relative="1" as="geometry">
            <mxPoint x="958" y="589" as="sourcePoint" />
            <mxPoint x="1008" y="539" as="targetPoint" />
            <Array as="points">
              <mxPoint x="1008" y="659" />
            </Array>
          </mxGeometry>
        </mxCell>
        <mxCell id="K8S6SPt0zPuVIynHNqIf-120" value="" style="html=1;points=[[0,0,0,0,5],[0,1,0,0,-5],[1,0,0,0,5],[1,1,0,0,-5]];perimeter=orthogonalPerimeter;outlineConnect=0;targetShapes=umlLifeline;portConstraint=eastwest;newEdgeStyle={&quot;curved&quot;:0,&quot;rounded&quot;:0};" vertex="1" parent="1">
          <mxGeometry x="948" y="-98" width="20" height="277" as="geometry" />
        </mxCell>
        <mxCell id="K8S6SPt0zPuVIynHNqIf-127" value="" style="shape=doubleArrow;direction=south;whiteSpace=wrap;html=1;" vertex="1" parent="1">
          <mxGeometry x="593" y="19" width="60" height="150" as="geometry" />
        </mxCell>
        <mxCell id="K8S6SPt0zPuVIynHNqIf-128" value="" style="shape=doubleArrow;direction=south;whiteSpace=wrap;html=1;" vertex="1" parent="1">
          <mxGeometry x="603" y="369" width="60" height="150" as="geometry" />
        </mxCell>
        <mxCell id="K8S6SPt0zPuVIynHNqIf-136" value="" style="edgeStyle=elbowEdgeStyle;elbow=horizontal;endArrow=classic;html=1;curved=0;rounded=0;endSize=8;startSize=8;entryX=0;entryY=0.5;entryDx=0;entryDy=0;" edge="1" parent="1" target="K8S6SPt0zPuVIynHNqIf-59">
          <mxGeometry width="50" height="50" relative="1" as="geometry">
            <mxPoint x="968" y="-9" as="sourcePoint" />
            <mxPoint x="1018" y="-59" as="targetPoint" />
            <Array as="points">
              <mxPoint x="1008" y="39" />
            </Array>
          </mxGeometry>
        </mxCell>
        <mxCell id="K8S6SPt0zPuVIynHNqIf-137" value="" style="edgeStyle=elbowEdgeStyle;elbow=horizontal;endArrow=classic;html=1;curved=0;rounded=0;endSize=8;startSize=8;entryX=0;entryY=0.5;entryDx=0;entryDy=0;" edge="1" parent="1" target="K8S6SPt0zPuVIynHNqIf-64">
          <mxGeometry width="50" height="50" relative="1" as="geometry">
            <mxPoint x="968" y="-9" as="sourcePoint" />
            <mxPoint x="998" y="-59" as="targetPoint" />
            <Array as="points">
              <mxPoint x="1008" y="-21" />
            </Array>
          </mxGeometry>
        </mxCell>
        <mxCell id="K8S6SPt0zPuVIynHNqIf-138" value="" style="edgeStyle=elbowEdgeStyle;elbow=horizontal;endArrow=classic;html=1;curved=0;rounded=0;endSize=8;startSize=8;entryX=0;entryY=0.5;entryDx=0;entryDy=0;" edge="1" parent="1" target="K8S6SPt0zPuVIynHNqIf-190">
          <mxGeometry width="50" height="50" relative="1" as="geometry">
            <mxPoint x="968" y="-9" as="sourcePoint" />
            <mxPoint x="1338" y="-116" as="targetPoint" />
            <Array as="points">
              <mxPoint x="1008" y="-51" />
            </Array>
          </mxGeometry>
        </mxCell>
        <mxCell id="K8S6SPt0zPuVIynHNqIf-139" value="" style="edgeStyle=elbowEdgeStyle;elbow=horizontal;endArrow=classic;html=1;curved=0;rounded=0;endSize=8;startSize=8;entryX=0;entryY=0.5;entryDx=0;entryDy=0;" edge="1" parent="1" target="K8S6SPt0zPuVIynHNqIf-109">
          <mxGeometry width="50" height="50" relative="1" as="geometry">
            <mxPoint x="968" y="-9" as="sourcePoint" />
            <mxPoint x="1018" y="-59" as="targetPoint" />
            <Array as="points">
              <mxPoint x="1008" y="-141" />
            </Array>
          </mxGeometry>
        </mxCell>
        <mxCell id="K8S6SPt0zPuVIynHNqIf-156" style="edgeStyle=orthogonalEdgeStyle;rounded=0;orthogonalLoop=1;jettySize=auto;html=1;exitX=1;exitY=0.5;exitDx=0;exitDy=0;entryX=0;entryY=0.5;entryDx=0;entryDy=0;" edge="1" parent="1" source="K8S6SPt0zPuVIynHNqIf-140" target="K8S6SPt0zPuVIynHNqIf-107">
          <mxGeometry relative="1" as="geometry" />
        </mxCell>
        <mxCell id="K8S6SPt0zPuVIynHNqIf-140" value="farmer" style="shape=datastore;whiteSpace=wrap;html=1;" vertex="1" parent="1">
          <mxGeometry x="778" y="-181" width="60" height="60" as="geometry" />
        </mxCell>
        <mxCell id="K8S6SPt0zPuVIynHNqIf-194" style="edgeStyle=orthogonalEdgeStyle;rounded=0;orthogonalLoop=1;jettySize=auto;html=1;exitX=0;exitY=0.5;exitDx=0;exitDy=0;entryX=1;entryY=0.5;entryDx=0;entryDy=0;" edge="1" parent="1" source="K8S6SPt0zPuVIynHNqIf-142" target="K8S6SPt0zPuVIynHNqIf-64">
          <mxGeometry relative="1" as="geometry">
            <Array as="points">
              <mxPoint x="1228" y="124" />
              <mxPoint x="1228" y="37" />
            </Array>
          </mxGeometry>
        </mxCell>
        <mxCell id="K8S6SPt0zPuVIynHNqIf-142" value="products" style="shape=datastore;whiteSpace=wrap;html=1;" vertex="1" parent="1">
          <mxGeometry x="1268" y="94" width="60" height="60" as="geometry" />
        </mxCell>
        <mxCell id="K8S6SPt0zPuVIynHNqIf-159" value="" style="edgeStyle=orthogonalEdgeStyle;rounded=0;orthogonalLoop=1;jettySize=auto;html=1;" edge="1" parent="1" source="K8S6SPt0zPuVIynHNqIf-143" target="K8S6SPt0zPuVIynHNqIf-64">
          <mxGeometry relative="1" as="geometry">
            <Array as="points">
              <mxPoint x="1228" y="-3" />
              <mxPoint x="1228" y="37" />
            </Array>
          </mxGeometry>
        </mxCell>
        <mxCell id="K8S6SPt0zPuVIynHNqIf-143" value="orders" style="shape=datastore;whiteSpace=wrap;html=1;" vertex="1" parent="1">
          <mxGeometry x="1268" y="-33" width="60" height="60" as="geometry" />
        </mxCell>
        <mxCell id="K8S6SPt0zPuVIynHNqIf-166" value="" style="edgeStyle=orthogonalEdgeStyle;rounded=0;orthogonalLoop=1;jettySize=auto;html=1;" edge="1" parent="1" source="K8S6SPt0zPuVIynHNqIf-149">
          <mxGeometry relative="1" as="geometry">
            <mxPoint x="1207.9999999999995" y="542" as="targetPoint" />
          </mxGeometry>
        </mxCell>
        <mxCell id="K8S6SPt0zPuVIynHNqIf-149" value="products&lt;div&gt;farmers&lt;/div&gt;" style="shape=datastore;whiteSpace=wrap;html=1;" vertex="1" parent="1">
          <mxGeometry x="1268" y="482" width="60" height="60" as="geometry" />
        </mxCell>
        <mxCell id="K8S6SPt0zPuVIynHNqIf-150" value="payment&lt;div&gt;history&lt;/div&gt;" style="shape=datastore;whiteSpace=wrap;html=1;" vertex="1" parent="1">
          <mxGeometry x="1448" y="605" width="60" height="60" as="geometry" />
        </mxCell>
        <mxCell id="K8S6SPt0zPuVIynHNqIf-151" value="subscription" style="shape=datastore;whiteSpace=wrap;html=1;" vertex="1" parent="1">
          <mxGeometry x="1448" y="759" width="60" height="60" as="geometry" />
        </mxCell>
        <mxCell id="K8S6SPt0zPuVIynHNqIf-182" style="edgeStyle=orthogonalEdgeStyle;rounded=0;orthogonalLoop=1;jettySize=auto;html=1;exitX=0;exitY=0.5;exitDx=0;exitDy=0;entryX=1;entryY=0.5;entryDx=0;entryDy=0;" edge="1" parent="1" source="K8S6SPt0zPuVIynHNqIf-153" target="K8S6SPt0zPuVIynHNqIf-72">
          <mxGeometry relative="1" as="geometry" />
        </mxCell>
        <mxCell id="K8S6SPt0zPuVIynHNqIf-153" value="conversations&lt;div&gt;messages&lt;/div&gt;&lt;div&gt;participants&lt;/div&gt;" style="shape=datastore;whiteSpace=wrap;html=1;" vertex="1" parent="1">
          <mxGeometry x="768" y="232" width="120" height="100" as="geometry" />
        </mxCell>
        <mxCell id="K8S6SPt0zPuVIynHNqIf-160" style="edgeStyle=orthogonalEdgeStyle;rounded=0;orthogonalLoop=1;jettySize=auto;html=1;exitX=1;exitY=0.5;exitDx=0;exitDy=0;entryX=0;entryY=0.5;entryDx=0;entryDy=0;" edge="1" parent="1" source="K8S6SPt0zPuVIynHNqIf-59" target="K8S6SPt0zPuVIynHNqIf-142">
          <mxGeometry relative="1" as="geometry">
            <Array as="points">
              <mxPoint x="1228" y="170" />
              <mxPoint x="1228" y="124" />
            </Array>
          </mxGeometry>
        </mxCell>
        <mxCell id="K8S6SPt0zPuVIynHNqIf-161" value="" style="shape=doubleArrow;direction=south;whiteSpace=wrap;html=1;" vertex="1" parent="1">
          <mxGeometry x="798" y="-109" width="20" height="50" as="geometry" />
        </mxCell>
        <mxCell id="K8S6SPt0zPuVIynHNqIf-162" value="" style="shape=doubleArrow;direction=south;whiteSpace=wrap;html=1;" vertex="1" parent="1">
          <mxGeometry x="798" y="469" width="20" height="63" as="geometry" />
        </mxCell>
        <mxCell id="K8S6SPt0zPuVIynHNqIf-178" style="edgeStyle=orthogonalEdgeStyle;rounded=0;orthogonalLoop=1;jettySize=auto;html=1;exitX=1;exitY=0.5;exitDx=0;exitDy=0;entryX=0;entryY=0.5;entryDx=0;entryDy=0;" edge="1" parent="1" source="K8S6SPt0zPuVIynHNqIf-163" target="K8S6SPt0zPuVIynHNqIf-203">
          <mxGeometry relative="1" as="geometry">
            <mxPoint x="1048" y="432" as="targetPoint" />
          </mxGeometry>
        </mxCell>
        <mxCell id="K8S6SPt0zPuVIynHNqIf-163" value="Buyer" style="shape=datastore;whiteSpace=wrap;html=1;" vertex="1" parent="1">
          <mxGeometry x="778" y="402" width="60" height="57" as="geometry" />
        </mxCell>
        <mxCell id="K8S6SPt0zPuVIynHNqIf-170" style="edgeStyle=orthogonalEdgeStyle;rounded=0;orthogonalLoop=1;jettySize=auto;html=1;exitX=1;exitY=0.5;exitDx=0;exitDy=0;entryX=0;entryY=0.5;entryDx=0;entryDy=0;" edge="1" parent="1" source="K8S6SPt0zPuVIynHNqIf-167" target="K8S6SPt0zPuVIynHNqIf-150">
          <mxGeometry relative="1" as="geometry" />
        </mxCell>
        <mxCell id="K8S6SPt0zPuVIynHNqIf-175" style="edgeStyle=orthogonalEdgeStyle;rounded=0;orthogonalLoop=1;jettySize=auto;html=1;exitX=0.5;exitY=1;exitDx=0;exitDy=0;entryX=1;entryY=0.5;entryDx=0;entryDy=0;" edge="1" parent="1" source="K8S6SPt0zPuVIynHNqIf-167" target="K8S6SPt0zPuVIynHNqIf-88">
          <mxGeometry relative="1" as="geometry" />
        </mxCell>
        <mxCell id="K8S6SPt0zPuVIynHNqIf-176" style="edgeStyle=orthogonalEdgeStyle;rounded=0;orthogonalLoop=1;jettySize=auto;html=1;exitX=0;exitY=0.5;exitDx=0;exitDy=0;entryX=1;entryY=0.5;entryDx=0;entryDy=0;" edge="1" parent="1" source="K8S6SPt0zPuVIynHNqIf-167" target="K8S6SPt0zPuVIynHNqIf-84">
          <mxGeometry relative="1" as="geometry" />
        </mxCell>
        <mxCell id="K8S6SPt0zPuVIynHNqIf-183" style="edgeStyle=orthogonalEdgeStyle;rounded=0;orthogonalLoop=1;jettySize=auto;html=1;exitX=1;exitY=0.5;exitDx=0;exitDy=0;entryX=0;entryY=0.5;entryDx=0;entryDy=0;" edge="1" parent="1" source="K8S6SPt0zPuVIynHNqIf-167" target="K8S6SPt0zPuVIynHNqIf-151">
          <mxGeometry relative="1" as="geometry" />
        </mxCell>
        <mxCell id="K8S6SPt0zPuVIynHNqIf-167" value="Stripe/Razorpay" style="html=1;whiteSpace=wrap;" vertex="1" parent="1">
          <mxGeometry x="1278" y="689" width="110" height="50" as="geometry" />
        </mxCell>
        <mxCell id="K8S6SPt0zPuVIynHNqIf-172" style="edgeStyle=orthogonalEdgeStyle;rounded=0;orthogonalLoop=1;jettySize=auto;html=1;exitX=1;exitY=0.5;exitDx=0;exitDy=0;entryX=0;entryY=0.5;entryDx=0;entryDy=0;" edge="1" parent="1" source="K8S6SPt0zPuVIynHNqIf-84" target="K8S6SPt0zPuVIynHNqIf-167">
          <mxGeometry relative="1" as="geometry" />
        </mxCell>
        <mxCell id="K8S6SPt0zPuVIynHNqIf-174" style="edgeStyle=orthogonalEdgeStyle;rounded=0;orthogonalLoop=1;jettySize=auto;html=1;exitX=1;exitY=0.5;exitDx=0;exitDy=0;entryX=0.5;entryY=1;entryDx=0;entryDy=0;" edge="1" parent="1" source="K8S6SPt0zPuVIynHNqIf-88" target="K8S6SPt0zPuVIynHNqIf-167">
          <mxGeometry relative="1" as="geometry" />
        </mxCell>
        <mxCell id="K8S6SPt0zPuVIynHNqIf-181" style="edgeStyle=orthogonalEdgeStyle;rounded=0;orthogonalLoop=1;jettySize=auto;html=1;exitX=1;exitY=0.5;exitDx=0;exitDy=0;entryX=0;entryY=0.5;entryDx=0;entryDy=0;" edge="1" parent="1" source="K8S6SPt0zPuVIynHNqIf-72" target="K8S6SPt0zPuVIynHNqIf-153">
          <mxGeometry relative="1" as="geometry" />
        </mxCell>
        <mxCell id="K8S6SPt0zPuVIynHNqIf-189" value="dashboard" style="swimlane;fontStyle=1;align=center;verticalAlign=top;childLayout=stackLayout;horizontal=1;startSize=26;horizontalStack=0;resizeParent=1;resizeParentMax=0;resizeLast=0;collapsible=1;marginBottom=0;whiteSpace=wrap;html=1;" vertex="1" parent="1">
          <mxGeometry x="1028" y="-189" width="160" height="130" as="geometry" />
        </mxCell>
        <mxCell id="K8S6SPt0zPuVIynHNqIf-190" value="&lt;div&gt;+ id: String&lt;div&gt;+ orders: [String]&lt;/div&gt;&lt;div&gt;+ Sales: Number&lt;/div&gt;&lt;/div&gt;" style="text;strokeColor=none;fillColor=none;align=left;verticalAlign=top;spacingLeft=4;spacingRight=4;overflow=hidden;rotatable=0;points=[[0,0.5],[1,0.5]];portConstraint=eastwest;whiteSpace=wrap;html=1;" vertex="1" parent="K8S6SPt0zPuVIynHNqIf-189">
          <mxGeometry y="26" width="160" height="54" as="geometry" />
        </mxCell>
        <mxCell id="K8S6SPt0zPuVIynHNqIf-191" value="" style="line;strokeWidth=1;fillColor=none;align=left;verticalAlign=middle;spacingTop=-1;spacingLeft=3;spacingRight=3;rotatable=0;labelPosition=right;points=[];portConstraint=eastwest;strokeColor=inherit;" vertex="1" parent="K8S6SPt0zPuVIynHNqIf-189">
          <mxGeometry y="80" width="160" height="8" as="geometry" />
        </mxCell>
        <mxCell id="K8S6SPt0zPuVIynHNqIf-192" value="&lt;div&gt;+ Get: SalesDetails(id)&lt;/div&gt;&lt;div&gt;+ Get: Orders(product.id)&lt;/div&gt;" style="text;strokeColor=none;fillColor=none;align=left;verticalAlign=top;spacingLeft=4;spacingRight=4;overflow=hidden;rotatable=0;points=[[0,0.5],[1,0.5]];portConstraint=eastwest;whiteSpace=wrap;html=1;" vertex="1" parent="K8S6SPt0zPuVIynHNqIf-189">
          <mxGeometry y="88" width="160" height="42" as="geometry" />
        </mxCell>
        <mxCell id="K8S6SPt0zPuVIynHNqIf-197" value="Auth" style="swimlane;fontStyle=1;align=center;verticalAlign=top;childLayout=stackLayout;horizontal=1;startSize=26;horizontalStack=0;resizeParent=1;resizeParentMax=0;resizeLast=0;collapsible=1;marginBottom=0;whiteSpace=wrap;html=1;" vertex="1" parent="1">
          <mxGeometry x="728" y="543" width="160" height="90" as="geometry" />
        </mxCell>
        <mxCell id="K8S6SPt0zPuVIynHNqIf-198" value="+ username: String&lt;div&gt;- password: String&lt;/div&gt;" style="text;strokeColor=none;fillColor=none;align=left;verticalAlign=top;spacingLeft=4;spacingRight=4;overflow=hidden;rotatable=0;points=[[0,0.5],[1,0.5]];portConstraint=eastwest;whiteSpace=wrap;html=1;" vertex="1" parent="K8S6SPt0zPuVIynHNqIf-197">
          <mxGeometry y="26" width="160" height="34" as="geometry" />
        </mxCell>
        <mxCell id="K8S6SPt0zPuVIynHNqIf-199" value="" style="line;strokeWidth=1;fillColor=none;align=left;verticalAlign=middle;spacingTop=-1;spacingLeft=3;spacingRight=3;rotatable=0;labelPosition=right;points=[];portConstraint=eastwest;strokeColor=inherit;" vertex="1" parent="K8S6SPt0zPuVIynHNqIf-197">
          <mxGeometry y="60" width="160" height="8" as="geometry" />
        </mxCell>
        <mxCell id="K8S6SPt0zPuVIynHNqIf-200" value="+ Post: register,login" style="text;strokeColor=none;fillColor=none;align=left;verticalAlign=top;spacingLeft=4;spacingRight=4;overflow=hidden;rotatable=0;points=[[0,0.5],[1,0.5]];portConstraint=eastwest;whiteSpace=wrap;html=1;" vertex="1" parent="K8S6SPt0zPuVIynHNqIf-197">
          <mxGeometry y="68" width="160" height="22" as="geometry" />
        </mxCell>
        <mxCell id="K8S6SPt0zPuVIynHNqIf-202" value="Profile Service" style="swimlane;fontStyle=1;align=center;verticalAlign=top;childLayout=stackLayout;horizontal=1;startSize=26;horizontalStack=0;resizeParent=1;resizeParentMax=0;resizeLast=0;collapsible=1;marginBottom=0;whiteSpace=wrap;html=1;" vertex="1" parent="1">
          <mxGeometry x="1058" y="299" width="160" height="140" as="geometry" />
        </mxCell>
        <mxCell id="K8S6SPt0zPuVIynHNqIf-203" value="+ username: String&lt;div&gt;+ fullName: String&lt;/div&gt;&lt;div&gt;+ address: string&lt;/div&gt;&lt;div&gt;+ rating: Number&lt;/div&gt;&lt;div&gt;&lt;br&gt;&lt;/div&gt;&lt;div&gt;&lt;br&gt;&lt;/div&gt;" style="text;strokeColor=none;fillColor=none;align=left;verticalAlign=top;spacingLeft=4;spacingRight=4;overflow=hidden;rotatable=0;points=[[0,0.5],[1,0.5]];portConstraint=eastwest;whiteSpace=wrap;html=1;" vertex="1" parent="K8S6SPt0zPuVIynHNqIf-202">
          <mxGeometry y="26" width="160" height="64" as="geometry" />
        </mxCell>
        <mxCell id="K8S6SPt0zPuVIynHNqIf-204" value="" style="line;strokeWidth=1;fillColor=none;align=left;verticalAlign=middle;spacingTop=-1;spacingLeft=3;spacingRight=3;rotatable=0;labelPosition=right;points=[];portConstraint=eastwest;strokeColor=inherit;" vertex="1" parent="K8S6SPt0zPuVIynHNqIf-202">
          <mxGeometry y="90" width="160" height="8" as="geometry" />
        </mxCell>
        <mxCell id="K8S6SPt0zPuVIynHNqIf-205" value="+ Post: editDetails()&lt;div&gt;+ Get: buyerDetails()&lt;/div&gt;" style="text;strokeColor=none;fillColor=none;align=left;verticalAlign=top;spacingLeft=4;spacingRight=4;overflow=hidden;rotatable=0;points=[[0,0.5],[1,0.5]];portConstraint=eastwest;whiteSpace=wrap;html=1;" vertex="1" parent="K8S6SPt0zPuVIynHNqIf-202">
          <mxGeometry y="98" width="160" height="42" as="geometry" />
        </mxCell>
        <mxCell id="K8S6SPt0zPuVIynHNqIf-207" style="edgeStyle=orthogonalEdgeStyle;rounded=0;orthogonalLoop=1;jettySize=auto;html=1;exitX=1;exitY=0.5;exitDx=0;exitDy=0;entryX=0;entryY=0.5;entryDx=0;entryDy=0;" edge="1" parent="1" source="K8S6SPt0zPuVIynHNqIf-190" target="K8S6SPt0zPuVIynHNqIf-143">
          <mxGeometry relative="1" as="geometry" />
        </mxCell>
        <mxCell id="K8S6SPt0zPuVIynHNqIf-209" value="Authorization" style="text;html=1;align=center;verticalAlign=middle;resizable=0;points=[];autosize=1;strokeColor=none;fillColor=none;rotation=270;" vertex="1" parent="1">
          <mxGeometry x="913" y="35.5" width="90" height="30" as="geometry" />
        </mxCell>
        <mxCell id="K8S6SPt0zPuVIynHNqIf-211" value="Authorization" style="text;html=1;align=center;verticalAlign=middle;resizable=0;points=[];autosize=1;strokeColor=none;fillColor=none;rotation=270;" vertex="1" parent="1">
          <mxGeometry x="903" y="543" width="90" height="30" as="geometry" />
        </mxCell>
        <mxCell id="K8S6SPt0zPuVIynHNqIf-212" value="COOKIE&lt;div&gt;PASS KEY&lt;/div&gt;" style="whiteSpace=wrap;html=1;align=center;verticalAlign=middle;treeFolding=1;treeMoving=1;newEdgeStyle={&quot;edgeStyle&quot;:&quot;elbowEdgeStyle&quot;,&quot;startArrow&quot;:&quot;none&quot;,&quot;endArrow&quot;:&quot;none&quot;};" vertex="1" parent="1">
          <mxGeometry x="818" y="109" width="100" height="40" as="geometry" />
        </mxCell>
        <mxCell id="K8S6SPt0zPuVIynHNqIf-213" value="" style="edgeStyle=elbowEdgeStyle;elbow=vertical;sourcePerimeterSpacing=0;targetPerimeterSpacing=0;startArrow=none;endArrow=none;rounded=0;curved=0;" edge="1" target="K8S6SPt0zPuVIynHNqIf-212" parent="1" source="K8S6SPt0zPuVIynHNqIf-120">
          <mxGeometry relative="1" as="geometry">
            <mxPoint x="798" y="69" as="sourcePoint" />
          </mxGeometry>
        </mxCell>
        <mxCell id="K8S6SPt0zPuVIynHNqIf-217" value="" style="edgeStyle=segmentEdgeStyle;endArrow=classic;html=1;curved=0;rounded=0;endSize=8;startSize=8;exitX=0;exitY=0.25;exitDx=0;exitDy=0;entryX=0.369;entryY=1.097;entryDx=0;entryDy=0;entryPerimeter=0;" edge="1" parent="1" source="K8S6SPt0zPuVIynHNqIf-212" target="K8S6SPt0zPuVIynHNqIf-48">
          <mxGeometry width="50" height="50" relative="1" as="geometry">
            <mxPoint x="738" y="119" as="sourcePoint" />
            <mxPoint x="788" y="69" as="targetPoint" />
            <Array as="points">
              <mxPoint x="818" y="129" />
              <mxPoint x="787" y="129" />
            </Array>
          </mxGeometry>
        </mxCell>
        <mxCell id="K8S6SPt0zPuVIynHNqIf-220" value="COOKIE&lt;div&gt;PASS KEY&lt;/div&gt;" style="whiteSpace=wrap;html=1;align=center;verticalAlign=middle;treeFolding=1;treeMoving=1;newEdgeStyle={&quot;edgeStyle&quot;:&quot;elbowEdgeStyle&quot;,&quot;startArrow&quot;:&quot;none&quot;,&quot;endArrow&quot;:&quot;none&quot;};" vertex="1" parent="1">
          <mxGeometry x="828" y="689" width="100" height="40" as="geometry" />
        </mxCell>
        <mxCell id="K8S6SPt0zPuVIynHNqIf-221" value="" style="edgeStyle=segmentEdgeStyle;endArrow=classic;html=1;curved=0;rounded=0;endSize=8;startSize=8;exitX=0;exitY=0.25;exitDx=0;exitDy=0;entryX=0.369;entryY=1.097;entryDx=0;entryDy=0;entryPerimeter=0;" edge="1" parent="1">
          <mxGeometry width="50" height="50" relative="1" as="geometry">
            <mxPoint x="829" y="702.0000000000001" as="sourcePoint" />
            <mxPoint x="798" y="633.0000000000001" as="targetPoint" />
            <Array as="points">
              <mxPoint x="829" y="712.0000000000001" />
              <mxPoint x="798" y="712.0000000000001" />
            </Array>
          </mxGeometry>
        </mxCell>
        <mxCell id="K8S6SPt0zPuVIynHNqIf-222" style="edgeStyle=elbowEdgeStyle;rounded=0;orthogonalLoop=1;jettySize=auto;html=1;startArrow=none;endArrow=none;exitX=0.75;exitY=0;exitDx=0;exitDy=0;entryX=0;entryY=1;entryDx=0;entryDy=-5;entryPerimeter=0;" edge="1" parent="1" source="K8S6SPt0zPuVIynHNqIf-220" target="K8S6SPt0zPuVIynHNqIf-27">
          <mxGeometry relative="1" as="geometry" />
        </mxCell>
        <mxCell id="K8S6SPt0zPuVIynHNqIf-223" value="SOCKET CONNECTION" style="text;html=1;align=center;verticalAlign=middle;resizable=0;points=[];autosize=1;strokeColor=none;fillColor=none;rotation=270;" vertex="1" parent="1">
          <mxGeometry x="448" y="259" width="160" height="30" as="geometry" />
        </mxCell>
        <mxCell id="K8S6SPt0zPuVIynHNqIf-227" style="edgeStyle=orthogonalEdgeStyle;rounded=0;orthogonalLoop=1;jettySize=auto;html=1;curved=0;exitX=0;exitY=1;exitDx=0;exitDy=-5;exitPerimeter=0;entryX=0.994;entryY=0.081;entryDx=0;entryDy=0;entryPerimeter=0;" edge="1" parent="1" source="K8S6SPt0zPuVIynHNqIf-120" target="K8S6SPt0zPuVIynHNqIf-70">
          <mxGeometry relative="1" as="geometry" />
        </mxCell>
      </root>
    </mxGraphModel>
  </diagram>
</mxfile>
